# Blender 4.4.1
# www.blender.org
mtllib trafficlight.mtl
o Cube
v -0.229142 6.871781 -0.882469
v -0.229142 -0.090811 -0.882469
v -0.131119 6.871781 -0.902256
v -0.131119 -0.090811 -0.902256
v 0.131119 6.871781 0.902256
v 0.131119 -0.090811 0.902256
v 0.229142 6.871781 0.882469
v 0.229142 -0.090811 0.882469
vn -0.0000 1.0000 -0.0000
vn 0.9802 -0.0000 -0.1979
vn 0.1979 -0.0000 0.9802
vn -0.0000 -1.0000 -0.0000
vn -0.1979 -0.0000 -0.9802
vn -0.9802 -0.0000 0.1979
vt 0.625000 0.500000
vt 0.875000 0.500000
vt 0.875000 0.750000
vt 0.625000 0.750000
vt 0.684516 0.001999
vt 0.668486 0.683760
vt 0.435484 0.681334
vt 0.451514 -0.000427
vt 0.375000 0.000000
vt 0.625000 0.000000
vt 0.625000 0.250000
vt 0.375000 0.250000
vt 0.125000 0.500000
vt 0.375000 0.500000
vt 0.375000 0.750000
vt 0.125000 0.750000
s 0
usemtl Material
f 1/1/1 5/2/1 7/3/1 3/4/1
f 8/9/3 7/10/3 5/11/3 6/12/3
f 6/13/4 2/14/4 4/15/4 8/16/4
f 2/14/5 1/1/5 3/4/5 4/15/5
f 6/12/6 5/11/6 1/1/6 2/14/6
usemtl trafficlight
f 4/5/2 3/6/2 7/7/2 8/8/2
