# Blender 4.4.1
# www.blender.org
mtllib trafficsign.mtl
o Cube
v -0.482150 4.915930 0.906411
v -0.482150 -0.084070 0.906411
v -0.570444 4.915930 0.859462
v -0.570444 -0.084070 0.859462
v 0.456835 4.915930 -0.859462
v 0.456835 -0.084070 -0.859462
v 0.368542 4.915930 -0.906411
v 0.368542 -0.084070 -0.906411
vn -0.0000 1.0000 -0.0000
vn -0.8829 -0.0000 -0.4695
vn 0.4695 -0.0000 -0.8829
vn -0.0000 -1.0000 -0.0000
vn -0.4695 -0.0000 0.8829
vn 0.8829 -0.0000 0.4695
vt 0.625000 0.500000
vt 0.875000 0.500000
vt 0.875000 0.750000
vt 0.625000 0.750000
vt 0.375000 0.750000
vt 0.625000 1.000000
vt 0.375000 1.000000
vt 0.375000 0.000000
vt 0.625000 0.000000
vt 0.625000 0.250000
vt 0.375000 0.250000
vt 0.125000 0.500000
vt 0.375000 0.500000
vt 0.125000 0.750000
vt 0.704717 0.004130
vt 0.705530 0.859459
vt 0.359473 0.860588
vt 0.358660 0.005259
s 1
usemtl Material.001
f 1/1/1 5/2/1 7/3/1 3/4/1
f 4/5/2 3/4/2 7/6/2 8/7/2
f 8/8/3 7/9/3 5/10/3 6/11/3
f 6/12/4 2/13/4 4/5/4 8/14/4
f 2/13/5 1/1/5 3/4/5 4/5/5
usemtl tree
f 6/15/6 5/16/6 1/17/6 2/18/6
